<svg xmlns="http://www.w3.org/2000/svg" viewBox="0 0 800 800" width="100%" height="100%">
  <!-- Definitions for Gradients, Glows, and Filters -->
  <defs>
    <!-- Background Gradient -->
    <radialGradient id="bg-glow" cx="50%" cy="50%" r="75%">
      <stop offset="0%" stop-color="#0d0d1b" stop-opacity="1" />
      <stop offset="60%" stop-color="#020204" stop-opacity="1" />
      <stop offset="100%" stop-color="#000000" stop-opacity="1" />
    </radialGradient>

    <!-- Holographic Cyan Gradient -->
    <linearGradient id="cyan-hologram" x1="0%" y1="0%" x2="100%" y2="100%">
      <stop offset="0%" stop-color="#00FFCC" stop-opacity="0.9" />
      <stop offset="50%" stop-color="#00E5FF" stop-opacity="0.4" />
      <stop offset="100%" stop-color="#0066FF" stop-opacity="0.1" />
    </linearGradient>

    <!-- Electric Magenta Gradient -->
    <linearGradient id="magenta-hologram" x1="100%" y1="0%" x2="0%" y2="100%">
      <stop offset="0%" stop-color="#D946EF" stop-opacity="0.9" />
      <stop offset="50%" stop-color="#AA22E0" stop-opacity="0.4" />
      <stop offset="100%" stop-color="#4A0E80" stop-opacity="0.1" />
    </linearGradient>

    <!-- Gold/Spectral Dispersion Gradient -->
    <linearGradient id="spectral-dispersion" x1="0%" y1="50%" x2="100%" y2="50%">
      <stop offset="0%" stop-color="#D946EF" />
      <stop offset="35%" stop-color="#8B5CF6" />
      <stop offset="65%" stop-color="#06B6D4" />
      <stop offset="100%" stop-color="#00FFCC" />
    </linearGradient>

    <!-- Linear Axis Gradients -->
    <linearGradient id="axis-x" x1="0%" y1="0%" x2="100%" y2="0%">
      <stop offset="0%" stop-color="#D946EF" stop-opacity="0" />
      <stop offset="100%" stop-color="#D946EF" stop-opacity="0.8" />
    </linearGradient>
    <linearGradient id="axis-y" x1="0%" y1="100%" x2="0%" y2="0%">
      <stop offset="0%" stop-color="#00FFCC" stop-opacity="0" />
      <stop offset="100%" stop-color="#00FFCC" stop-opacity="0.8" />
    </linearGradient>
    <linearGradient id="axis-z" x1="0%" y1="100%" x2="100%" y2="0%">
      <stop offset="0%" stop-color="#FFFFFF" stop-opacity="0" />
      <stop offset="100%" stop-color="#FFFFFF" stop-opacity="0.5" />
    </linearGradient>

    <!-- Glowing Filters -->
    <filter id="neon-glow-cyan" x="-20%" y="-20%" width="140%" height="140%">
      <feGaussianBlur stdDeviation="8" result="blur1" />
      <feGaussianBlur stdDeviation="20" result="blur2" />
      <feMerge>
        <feMergeNode in="blur2" />
        <feMergeNode in="blur1" />
        <feMergeNode in="SourceGraphic" />
      </feMerge>
    </filter>

    <filter id="neon-glow-magenta" x="-20%" y="-20%" width="140%" height="140%">
      <feGaussianBlur stdDeviation="10" result="blur1" />
      <feGaussianBlur stdDeviation="25" result="blur2" />
      <feMerge>
        <feMergeNode in="blur2" />
        <feMergeNode in="blur1" />
        <feMergeNode in="SourceGraphic" />
      </feMerge>
    </filter>

    <filter id="hologram-flicker" x="0%" y="0%" width="100%" height="100%">
      <feTurbulence type="fractalNoise" baseFrequency="0.05 0.95" numOctaves="1" result="noise" />
      <feColorMatrix type="matrix" values="1 0 0 0 0  0 1 0 0 0  0 0 1 0 0  0 0 0 0.15 0" result="coloredNoise"/>
      <feComposite operator="in" in2="SourceGraphic" in="coloredNoise" result="noisyGraphic"/>
      <feMerge>
        <feMergeNode in="SourceGraphic"/>
        <feMergeNode in="noisyGraphic"/>
      </feMerge>
    </filter>
  </defs>

  <!-- Ambient Dark Background Canvas -->
  <rect width="800" height="800" fill="url(#bg-glow)" />

  <!-- Cyber-Noir Vector Grid Lines & Scope Telemetry -->
  <g opacity="0.35">
    <!-- Concentric Target Circles -->
    <circle cx="400" cy="400" r="350" fill="none" stroke="#00FFCC" stroke-width="1" stroke-dasharray="2 10" />
    <circle cx="400" cy="400" r="280" fill="none" stroke="#D946EF" stroke-width="1" stroke-dasharray="5 15" opacity="0.5" />
    <circle cx="400" cy="400" r="180" fill="none" stroke="#00FFCC" stroke-width="0.75" />
    <circle cx="400" cy="400" r="100" fill="none" stroke="#FFFFFF" stroke-width="0.5" stroke-dasharray="1 5" />
    <circle cx="400" cy="400" r="4" fill="#00FFCC" />

    <!-- Crosshair Coordinates -->
    <line x1="50" y1="400" x2="750" y2="400" stroke="#00FFCC" stroke-width="0.5" stroke-dasharray="4 8" />
    <line x1="400" y1="50" x2="400" y2="750" stroke="#00FFCC" stroke-width="0.5" stroke-dasharray="4 8" />

    <!-- Corner Technical Layout Borders -->
    <path d="M 80,100 L 80,80 L 100,80" fill="none" stroke="#00FFCC" stroke-width="2" />
    <path d="M 720,100 L 720,80 L 700,80" fill="none" stroke="#00FFCC" stroke-width="2" />
    <path d="M 80,700 L 80,720 L 100,720" fill="none" stroke="#00FFCC" stroke-width="2" />
    <path d="M 720,700 L 720,720 L 700,720" fill="none" stroke="#D946EF" stroke-width="2" />
    
    <!-- Calibration Ticks -->
    <path d="M 400,60 L 410,60 M 400,80 L 405,80 M 400,100 L 410,100 M 400,120 L 405,120 M 400,140 L 410,140 M 400,160 L 405,160 M 400,180 L 410,180" stroke="#00FFCC" stroke-width="1" />
    <path d="M 60,400 L 60,410 M 80,400 L 80,405 M 100,400 L 100,410 M 120,400 L 120,405 M 140,400 L 140,410 M 160,400 L 160,405 M 180,400 L 180,410" stroke="#D946EF" stroke-width="1" />
  </g>

  <!-- 3D Spatial Coordinate Core Projection Grid (Isometric View) -->
  <g transform="translate(400, 400)" opacity="0.8">
    <!-- Isometric Grid Planes -->
    <polygon points="-250,0 0,-125 250,0 0,125" fill="none" stroke="#00FFCC" stroke-width="1" opacity="0.15" />
    <polygon points="-200,0 0,-100 200,0 0,100" fill="none" stroke="#D946EF" stroke-width="1" opacity="0.1" />
    <polygon points="-150,0 0,-75 150,0 0,75" fill="none" stroke="#FFFFFF" stroke-width="1" opacity="0.05" />

    <!-- Spatial Camera View Frustum Outline -->
    <path d="M -300,-150 L 0,-250 L 300,-150 L 0,150 Z" fill="none" stroke="url(#spectral-dispersion)" stroke-width="1.5" stroke-dasharray="3 9" opacity="0.6" />

    <!-- Axes vectors -->
    <!-- X-Axis (Right-Down) -->
    <line x1="0" y1="0" x2="260" y2="130" stroke="url(#axis-x)" stroke-width="2.5" />
    <polygon points="260,130 250,120 252,128" fill="#D946EF" />
    <text x="275" y="145" fill="#D946EF" font-family="JetBrains Mono, monospace" font-size="14" font-weight="bold">X_LAT</text>

    <!-- Y-Axis (Upwards) -->
    <line x1="0" y1="0" x2="0" y2="-280" stroke="url(#axis-y)" stroke-width="2.5" />
    <polygon points="0,-280 -6,-268 6,-268" fill="#00FFCC" />
    <text x="0" y="-300" text-anchor="middle" fill="#00FFCC" font-family="JetBrains Mono, monospace" font-size="14" font-weight="bold">Y_ALT</text>

    <!-- Z-Axis (Left-Down) -->
    <line x1="0" y1="0" x2="-260" y2="130" stroke="url(#axis-z)" stroke-width="2" />
    <polygon points="-260,130 -252,128 -250,120" fill="#FFFFFF" />
    <text x="-315" y="145" fill="#FFFFFF" font-family="JetBrains Mono, monospace" font-size="14" font-weight="bold">Z_DEPTH</text>
  </g>

  <!-- The "SpectraSplat" Gaussian Cloud & Holographic Shells -->
  <g transform="translate(400, 370)" filter="url(#hologram-flicker)">
    <!-- Back-most Splat Projection Core -->
    <ellipse cx="0" cy="0" rx="200" ry="85" fill="none" stroke="#D946EF" stroke-width="2" opacity="0.3" filter="url(#neon-glow-magenta)" transform="rotate(-15)" />
    
    <!-- Outer Dispersion Shells -->
    <ellipse cx="0" cy="0" rx="160" ry="110" fill="none" stroke="url(#magenta-hologram)" stroke-width="1.5" stroke-dasharray="15 5 2 5" transform="rotate(35)" />
    <ellipse cx="0" cy="0" rx="180" ry="90" fill="none" stroke="url(#cyan-hologram)" stroke-width="1.5" stroke-dasharray="20 10" transform="rotate(-40)" />

    <!-- Gaussian Splat Ellipsoids (Overlapping transparent fills creating density) -->
    <!-- Primary Splat (Magenta Core) -->
    <ellipse cx="-40" cy="-20" rx="110" ry="60" fill="url(#magenta-hologram)" filter="url(#neon-glow-magenta)" opacity="0.4" transform="rotate(25)" />
    <!-- Secondary Splat (Cyan Core) -->
    <ellipse cx="40" cy="20" rx="120" ry="50" fill="url(#cyan-hologram)" filter="url(#neon-glow-cyan)" opacity="0.6" transform="rotate(-15)" />
    
    <!-- Ultra-Dense Splatter Kernel (White-Cyan Hotspot) -->
    <ellipse cx="0" cy="0" rx="60" ry="25" fill="#FFFFFF" opacity="0.25" filter="url(#neon-glow-cyan)" transform="rotate(10)" />
    <ellipse cx="5" cy="-5" rx="30" ry="12" fill="#00FFCC" opacity="0.75" filter="url(#neon-glow-cyan)" />
    <ellipse cx="-8" cy="8" rx="20" ry="8" fill="#D946EF" opacity="0.75" filter="url(#neon-glow-magenta)" />

    <!-- Voxel Grid Crossbars Layered In Between (Math Geometry) -->
    <g opacity="0.65" stroke-width="0.75" fill="none">
      <!-- Voxel Boxes around the hot spot -->
      <polygon points="-80,-20 0,-50 80,-20 0,10" stroke="#00FFCC" />
      <line x1="-80" y1="-20" x2="-80" y2="20" stroke="#00FFCC" />
      <line x1="0" y1="10" x2="0" y2="50" stroke="#00FFCC" />
      <line x1="80" y1="-20" x2="80" y2="20" stroke="#00FFCC" />
      <polygon points="-80,20 0,50 80,20 0,10" stroke="#00FFCC" opacity="0.5" />
      
      <!-- Off-center floaters -->
      <polygon points="120,-60 150,-75 180,-60 150,-45" stroke="#D946EF" />
      <line x1="120" y1="-60" x2="120" y2="-40" stroke="#D946EF" />
      <line x1="150" y1="-45" x2="150" y2="-25" stroke="#D946EF" />
      <line x1="180" y1="-60" x2="180" y2="-40" stroke="#D946EF" />
      <polygon points="120,-40 150,-25 180,-40 150,-45" stroke="#D946EF" opacity="0.5" />

      <!-- Dashed projection vectors from voxels back to center -->
      <line x1="150" y1="-45" x2="0" y2="0" stroke="url(#spectral-dispersion)" stroke-dasharray="2 6" stroke-width="1" />
      <line x1="-80" y1="20" x2="0" y2="0" stroke="url(#spectral-dispersion)" stroke-dasharray="2 6" stroke-width="1" />
    </g>

    <!-- Point Clouds / Splat Particles (Foliage and Spectral Spray) -->
    <g opacity="0.9">
      <!-- Cyan Dots -->
      <circle cx="-130" cy="-45" r="3" fill="#00FFCC" filter="url(#neon-glow-cyan)" />
      <circle cx="-90" cy="-80" r="2" fill="#00FFCC" />
      <circle cx="160" cy="60" r="3" fill="#00FFCC" filter="url(#neon-glow-cyan)" />
      <circle cx="110" cy="80" r="1.5" fill="#00FFCC" />
      <circle cx="210" cy="-20" r="2" fill="#00FFCC" />
      <circle cx="45" cy="-90" r="3.5" fill="#00FFCC" filter="url(#neon-glow-cyan)" />

      <!-- Magenta Dots -->
      <circle cx="130" cy="-55" r="3" fill="#D946EF" filter="url(#neon-glow-magenta)" />
      <circle cx="-150" cy="50" r="2.5" fill="#D946EF" filter="url(#neon-glow-magenta)" />
      <circle cx="-110" cy="90" r="1.5" fill="#D946EF" />
      <circle cx="-210" cy="10" r="3.5" fill="#D946EF" filter="url(#neon-glow-magenta)" />
      <circle cx="-20" cy="115" r="2" fill="#D946EF" />
      <circle cx="85" cy="-100" r="2" fill="#D946EF" />

      <!-- Spectral White Clusters -->
      <circle cx="-15" cy="-35" r="1.5" fill="#FFFFFF" />
      <circle cx="25" cy="35" r="1.5" fill="#FFFFFF" />
      <circle cx="10" cy="-20" r="2" fill="#FFFFFF" filter="url(#neon-glow-cyan)" />
      <circle cx="-35" cy="15" r="2" fill="#FFFFFF" filter="url(#neon-glow-magenta)" />
    </g>

    <!-- Refraction Ring / Prism Elements (Lensing effect) -->
    <path d="M -220,-20 A 240,110 0 0,1 220,-20" fill="none" stroke="url(#spectral-dispersion)" stroke-width="3" opacity="0.8" />
    <path d="M 220,20 A 240,110 0 0,1 -220,20" fill="none" stroke="url(#spectral-dispersion)" stroke-width="1.5" stroke-dasharray="8 4 2 4" opacity="0.5" />
  </g>

  <!-- Title & Geometric Typographic Frame at Bottom -->
  <g transform="translate(400, 680)">
    <!-- Base plate graphic -->
    <path d="M -180,-10 L -160,-25 L 160,-25 L 180,-10 L 150,15 L -150,15 Z" fill="rgba(13, 13, 27, 0.6)" stroke="#00FFCC" stroke-width="1" />
    <line x1="-160" y1="-25" x2="160" y2="-25" stroke="#D946EF" stroke-width="2" filter="url(#neon-glow-magenta)" />

    <!-- Typographic geometric brand: SPECTRA // SPLAT -->
    <!-- Custom modern SVG vectors for 'S P E C T R A' and 'S P L A T' -->
    <g transform="translate(0, -2)">
      <!-- S -->
      <path d="M -120,-8 L -105,-8 L -105,-2 L -120,-2 L -120,4 L -105,4" fill="none" stroke="#FFFFFF" stroke-width="2" stroke-linecap="round" stroke-linejoin="round" />
      <!-- P -->
      <path d="M -95,4 L -95,-8 L -82,-8 L -82,-2 L -95,-2" fill="none" stroke="#FFFFFF" stroke-width="2" stroke-linecap="round" stroke-linejoin="round" />
      <!-- E -->
      <path d="M -60,-8 L -72,-8 L -72,4 L -60,4 M -72,-2 L -63,-2" fill="none" stroke="#FFFFFF" stroke-width="2" stroke-linecap="round" stroke-linejoin="round" />
      <!-- C -->
      <path d="M -38,-8 L -50,-8 L -50,4 L -38,4" fill="none" stroke="#FFFFFF" stroke-width="2" stroke-linecap="round" stroke-linejoin="round" />
      <!-- T -->
      <path d="M -28,-8 L -16,-8 M -22,-8 L -22,4" fill="none" stroke="#FFFFFF" stroke-width="2" stroke-linecap="round" stroke-linejoin="round" />
      <!-- R -->
      <path d="M -6,4 L -6,-8 L 6,-8 L 6,-2 L -6,-2 M 0,-2 L 6,4" fill="none" stroke="#FFFFFF" stroke-width="2" stroke-linecap="round" stroke-linejoin="round" />
      <!-- A -->
      <path d="M 14,4 L 20,-8 L 26,4 M 16,0 L 24,0" fill="none" stroke="#FFFFFF" stroke-width="2" stroke-linecap="round" stroke-linejoin="round" />

      <!-- Center Separator Icons (Double slash in cyber neon) -->
      <line x1="38" y1="-8" x2="44" y2="4" stroke="#00FFCC" stroke-width="3" filter="url(#neon-glow-cyan)" />
      <line x1="46" y1="-8" x2="52" y2="4" stroke="#D946EF" stroke-width="3" filter="url(#neon-glow-magenta)" />

      <!-- S -->
      <path d="M 64,-8 L 79,-8 L 79,-2 L 64,-2 L 64,4 L 79,4" fill="none" stroke="#FFFFFF" stroke-width="2" stroke-linecap="round" stroke-linejoin="round" />
      <!-- P -->
      <path d="M 89,4 L 89,-8 L 102,-8 L 102,-2 L 89,-2" fill="none" stroke="#FFFFFF" stroke-width="2" stroke-linecap="round" stroke-linejoin="round" />
      <!-- L -->
      <path d="M 112,-8 L 112,4 L 124,4" fill="none" stroke="#FFFFFF" stroke-width="2" stroke-linecap="round" stroke-linejoin="round" />
      <!-- A -->
      <path d="M 134,4 L 140,-8 L 146,4 M 136,0 L 144,0" fill="none" stroke="#FFFFFF" stroke-width="2" stroke-linecap="round" stroke-linejoin="round" />
      <!-- T -->
      <path d="M 156,-8 L 168,-8 M 162,-8 L 162,4" fill="none" stroke="#FFFFFF" stroke-width="2" stroke-linecap="round" stroke-linejoin="round" />
    </g>

    <!-- Subtitle Meta-telemetry -->
    <text x="0" y="32" text-anchor="middle" fill="#00FFCC" font-family="JetBrains Mono, monospace" font-size="10" font-weight="bold" letter-spacing="4">SPATIAL DIRECTOR v7.0.0</text>
    <text x="0" y="45" text-anchor="middle" fill="#718096" font-family="JetBrains Mono, monospace" font-size="7" letter-spacing="1">COORD.SYSTEM: VOXEL_GAUSSIAN_5D</text>
  </g>
</svg>
